<svg xmlns="http://www.w3.org/2000/svg" viewBox="0 0 1191.0 842.0">
<metadata>Automatic draft. Coordinates: normalized PDF points. See source.json.</metadata>
<g id="walls_columns" fill="none" stroke="#008cdd" stroke-width="1">
<polyline points="456.60003662109375,142.6400146484375 618.239990234375,142.6400146484375 618.239990234375,664.4000244140625 617.6400146484375,675.6799926757812 462.239990234375,675.6799926757812 462.239990234375,653.0 456.60003662109375,653.0 456.60003662109375,142.6400146484375 456.60003662109375,142.6400146484375"/>
</g>
<g id="entrances" fill="none" stroke="#f000b0" stroke-width="1">
</g>
<g id="obstacles" fill="none" stroke="#ea7500" stroke-width="1">
</g>
<g id="fixed" fill="none" stroke="#a82bcc" stroke-width="1">
</g>
<g id="props" fill="none" stroke="#10862b" stroke-width="1">
<polyline points="558.5742930306328,205.7973339027828 558.4993023342557,205.4303222232395 558.3784246444702,205.0823175907135 558.2150200737848,204.75667995876736 558.0124487347072,204.45676928096344 557.7740707397461,204.18594551086426 557.5032462014092,203.94756860203213 557.2033352322048,203.74499850802948 556.8776979446411,203.58159518241882 556.5296944512262,203.46071857876248 556.162684864468,203.38572865062292 555.8400268554688,203.3599853515625 459.4200439453125,203.3599853515625 459.0373883777194,203.38572865062287 458.6703787909614,203.4607185787625 458.3223752975464,203.58159518241882 457.9967380099827,203.74499850802954 457.6968270407782,203.94756860203208 457.4260025024414,204.18594551086426 457.1876245074802,204.45676928096344 456.98505316840277,204.75667995876734 456.8216485977173,205.0823175907135 456.7007709079319,205.4303222232395 456.6257802115547,205.79733390278287 456.60003662109375,206.239990234375 456.60003662109375,234.5 456.6257802115546,234.88265877299835 456.70077090793194,235.2496704525418 456.8216485977173,235.59767508506775 456.9850531684028,235.92331271701394 457.18762450748005,236.22322339481775 457.4260025024414,236.494047164917 457.69682704077826,236.73242407374912 457.99673800998255,236.9349941677517 458.3223752975464,237.09839749336243 458.6703787909614,237.2192740970188 459.0373883777194,237.29426402515836 459.4200439453125,237.32000732421875 555.780029296875,237.32000732421875 556.162684864468,237.29426402515833 556.5296944512262,237.2192740970188 556.8776979446411,237.09839749336243 557.203335232205,236.93499416775177 557.5032462014091,236.73242407374906 557.7740707397461,236.494047164917 558.0124487347073,236.22322339481775 558.2150200737847,235.92331271701386 558.3784246444702,235.59767508506775 558.4993023342556,235.2496704525418 558.5742930306328,234.88265877299838 558.7200317382812,234.55999755859375 558.6000366210938,206.17999267578125 558.5742930306328,205.7973339027828"/>
<polyline points="477.24,355.04 477.0,355.04 470.28,355.04 470.28,424.76 496.32,424.76 496.32,334.04 470.28,334.04 470.28,337.64 477.24,337.64 477.24,337.88 482.76,337.88 482.76,354.92 477.24,354.92 477.24,355.04"/>
<polyline points="496.04408772786456,557.5158487955729 496.15914281209314,557.2435811360677 496.32000732421875,557.0 496.32000732421875,462.8000183105469 496.1896736356947,462.5858728090921 496.1106252670288,462.2967839241028 495.96279790666364,462.04382912317897 495.7570507261488,461.8378802935282 495.5042428970337,461.6898093223572 495.1199951171875,461.6000061035156 468.0,461.6000061035156 468.0,558.0800170898438 495.1199951171875,558.0800170898438 495.36252721150714,558.0394388834636 495.6349080403646,557.9246419270834 495.86571884155273,557.7464904785156 496.04408772786456,557.5158487955729"/>
<polyline points="495.6349080403646,654.2846272786459 495.86571884155273,654.1064758300781 496.04408772786456,653.8758341471353 496.15914281209314,653.6035664876302 496.32000732421875,653.3599853515625 496.32000732421875,559.1600341796875 496.1896736356947,558.9458340538873 496.1106252670288,558.6567516326904 495.96279790666364,558.4037969377305 495.7570507261488,558.1978443993462 495.36252721150714,558.0394388834636 495.1199951171875,558.0800170898438 468.0,558.0800170898438 468.0,654.4400024414062 495.1199951171875,654.5599975585938 495.36252721150714,654.3994242350261 495.6349080403646,654.2846272786459"/>
<polyline points="579.6000366210938,558.0800170898438 579.2375200059679,558.0394388834636 578.9641927083334,558.1158921983507 578.7335510253906,558.2942657470703 578.5553995768229,558.5250786675347 578.4406026204427,558.7974565294054 578.52001953125,559.1600341796875 578.52001953125,653.3599853515625 578.4408959282771,653.6035664876302 578.5559556749133,653.8758341471354 578.7343292236328,654.1064758300781 578.9651421440972,654.2846272786458 579.2375200059679,654.399424235026 579.6000366210938,654.5599975585938 606.8400268554688,654.4400024414062 606.8400268554688,558.0800170898438 579.6000366210938,558.0800170898438"/>
<polyline points="456.60003662109375,653.0 462.239990234375,653.0 462.239990234375,664.4000244140625 468.0,664.4000244140625 468.0,461.6000061035156 456.60003662109375,461.6000061035156 456.60003662109375,653.0"/>
<polyline points="618.24,605.96 618.24,510.2 606.84,510.2 606.84,558.08 606.84,605.96 618.24,605.96"/>
</g>
</svg>